inDegrees=no
num_controls=7
num_derivatives=13
num_iterations=206
num_multipliers=7
num_parameters=0
num_slacks=7
num_states=26
objective=6.556938
objective_accelerations=0.506555
objective_balance=0.045544
objective_effort=0.487679
objective_height=5.424943
objective_ligament=0.092216
solver_duration=1867.016343
status=Solve_Succeeded
success=true
DataType=double
version=3
OpenSimVersion=4.4-2022-07-23-0e9fedc
endheader
time	/jointset/ground_pelvis/pelvis_tilt/value	/jointset/ground_pelvis/pelvis_tx/value	/jointset/ground_pelvis/pelvis_ty/value	/jointset/hip_r/hip_flexion_r/value	/jointset/hip_r/hip_adduction_r/value	/jointset/hip_r/hip_rotation_r/value	/jointset/back/lumbar_extension/value	/jointset/patellofemoral_r/patellar_flexion_r/value	/jointset/knee_r/knee_flexion_r/value	/jointset/knee_r/knee_adduction_r/value	/jointset/knee_r/knee_rotation_r/value	/jointset/ankle_r/ankle_angle_r/value	/jointset/subtalar_r/subtalar_angle_r/value	/jointset/ground_pelvis/pelvis_tilt/speed	/jointset/ground_pelvis/pelvis_tx/speed	/jointset/ground_pelvis/pelvis_ty/speed	/jointset/hip_r/hip_flexion_r/speed	/jointset/hip_r/hip_adduction_r/speed	/jointset/hip_r/hip_rotation_r/speed	/jointset/back/lumbar_extension/speed	/jointset/patellofemoral_r/patellar_flexion_r/speed	/jointset/knee_r/knee_flexion_r/speed	/jointset/knee_r/knee_adduction_r/speed	/jointset/knee_r/knee_rotation_r/speed	/jointset/ankle_r/ankle_angle_r/speed	/jointset/subtalar_r/subtalar_angle_r/speed	/forceset/tau_hip_flexion_r	/forceset/tau_hip_adduction_r	/forceset/tau_hip_rotation_r	/forceset/tau_knee_flexion_r	/forceset/tau_ankle_angle_r	/forceset/tau_subtalar_angle_r	/forceset/tau_lumbar_extension	lambda_cid13_p0	lambda_cid14_p0	lambda_cid14_p1	lambda_cid14_p2	lambda_cid14_p3	lambda_cid14_p4	lambda_cid14_p5	/jointset/ground_pelvis/pelvis_tilt/accel	/jointset/ground_pelvis/pelvis_tx/accel	/jointset/ground_pelvis/pelvis_ty/accel	/jointset/hip_r/hip_flexion_r/accel	/jointset/hip_r/hip_adduction_r/accel	/jointset/hip_r/hip_rotation_r/accel	/jointset/back/lumbar_extension/accel	/jointset/patellofemoral_r/patellar_flexion_r/accel	/jointset/knee_r/knee_flexion_r/accel	/jointset/knee_r/knee_adduction_r/accel	/jointset/knee_r/knee_rotation_r/accel	/jointset/ankle_r/ankle_angle_r/accel	/jointset/subtalar_r/subtalar_angle_r/accel	gamma_cid13_p0	gamma_cid14_p0	gamma_cid14_p1	gamma_cid14_p2	gamma_cid14_p3	gamma_cid14_p4	gamma_cid14_p5
1.5	-0.2225639280317462	0.007928753496229733	0.8495496902469856	0.8656268716089359	-0.2263935863719011	-0.1409348044026737	-0.3039946319790428	0.6540235663407354	0.6540235663407834	0.03921363667598268	0.1745325924484558	0.1781852969438833	0.0376310887655826	0.5408703541463956	0.2339968883495153	0.4000690269807011	-1.96638633632351	0.01132080835216532	-0.2939819156460659	0.6978541538092041	-1.751313582393693	-1.751313582393685	0.2769333005893104	-1.523111127634594e-05	-0.4076354648934449	-0.09079178469855168	-0.1403771606484318	-0.02554355296316779	0.007855725469920147	-0.2962344454812247	0.1041579396390154	-0.006183824920348751	0.1736249106261261	-33.87794429982669	-8.026163431555409	0.4333355942244033	-4.776949071741042	-2.131624258333703	-658.5622490757956	61.79019631496931	0.2725824004852199	0.5227203878030984	-0.4544802111029231	-1.147118775234058	0.01662369161128502	-0.5255568002113999	1.635727750700737	-1.09385049234865	-1.09385049234864	0.4201254594421776	0.0007255334920191416	-0.3363755593970035	-0.02808216922971863	1.337460982997693e-07	1.898534412640232e-07	-4.723763838503003e-07	1.284780910659233e-06	-5.841817059631443e-08	2.577951163096223e-07	-5.003144506256279e-07
1.51	-0.2171421109734256	0.01029457730321015	0.8535268103996123	0.8459078133559169	-0.2262804810485956	-0.1438998026979043	-0.2969355457088788	0.6364580588211112	0.6364580588211395	0.04200620777422482	0.1745326402855112	0.1740924293811125	0.03672069428046743	0.5434148323806111	0.2391351119935857	0.3952694929395159	-1.977152890897909	0.01130023712687375	-0.2989947707166208	0.7138618251558569	-1.7615368975251	-1.761536897525093	0.2815671228451909	1.511948898301794e-05	-0.410874955521551	-0.09126985802911722	-0.1326431614978247	-0.02681228395451773	0.007240842803569061	-0.2934003095055924	0.106346382946039	-0.007087124727809395	0.1669086489502448	-34.79483316079531	-7.1419113817845	0.2748341356919687	-4.841888185686906	-2.360707802574275	-654.4319384002746	61.60008736676127	0.2336666555814455	0.5044489275663179	-0.5054603927775049	-1.000534469498174	-0.01126213161023323	-0.4854746828253936	1.56809556648757	-0.9489476280021035	-0.9489476280023452	0.4829230083408059	0.002992470502293287	-0.3082614055641073	-0.05501650297735747	1.418514272771195e-07	1.949692848723754e-07	-5.444437178958845e-07	1.318690128970208e-06	-5.374392351428409e-08	2.731057819920542e-07	-5.577120291431324e-07
1.52	-0.2116971919086246	0.01271079846160274	0.857453381133397	0.8260892674229643	-0.2261675543579451	-0.1469141945083102	-0.2897194209772799	0.6187978430292796	0.6187978430292882	0.04484469957496186	0.1745327521580037	0.1699690617938513	0.03580604974444512	0.545490755442496	0.2440763586319504	0.3899591432122813	-1.986283872310523	0.01128508182114806	-0.303860618681091	0.7292618460961101	-1.770255236835121	-1.770255236835117	0.2861174410882631	-2.424022381732166e-06	-0.4137354697915251	-0.09164179487997792	-0.1249091623472075	-0.028081014945868	0.006625960137219302	-0.2905661735299589	0.108534826253062	-0.007990424535270721	0.1601923872743732	-35.67994781543059	-6.265267060916741	0.1193176165401843	-4.912235145631097	-2.590934288243969	-650.4281210852248	61.49263258678732	0.178871366019131	0.4833249866619616	-0.5566433483128298	-0.820004142877192	0.01770687552446211	-0.4961553789944637	1.51419766942082	-0.7928553280715664	-0.7928553280715674	0.4034246568805256	-0.008853288832809518	-0.2605802877706419	-0.006854873288751413	1.506534029248819e-07	1.971826563212956e-07	-6.419267420235284e-07	1.333037980769723e-06	-4.472143814071576e-08	2.867112027152565e-07	-6.206698645425371e-07
1.53	-0.2062338862607255	0.01517539628668827	0.8613243527147222	0.806187633628964	-0.2260548030549787	-0.1499768614930659	-0.2823524910685993	0.6010580195899128	0.6010580195899271	0.04772815927245041	0.1745327694826082	0.1658189942425656	0.0348881679150316	0.5470879946215577	0.2488046926067017	0.384155357132186	-1.993759154689694	0.01126664644992089	-0.3086535782009582	0.7440068243097123	-1.777448430975381	-1.777448430975382	0.2905516294794061	1.51067036128166e-06	-0.4162107471239867	-0.09191487137079885	-0.1170277401964697	-0.02960735846753995	0.006029550113084479	-0.2879804191028666	0.111029851620831	-0.009030661699453189	0.1533535928646449	-36.52867400171261	-5.306096664258859	-0.08403522776102001	-4.971740367979732	-2.841331313180738	-646.5630901861697	61.36163953861087	0.1378127446623519	0.4618057810437386	-0.604157662235119	-0.6687049681205305	-0.01129008423023603	-0.4677385472668372	1.437051197787622	-0.6434315083738444	-0.6434315083746884	0.4599331939237055	0.004614168655949814	-0.2308910742506058	-0.03455494804777919	1.601955656599574e-07	1.963121511008193e-07	-7.664139368633603e-07	1.326601880650812e-06	-3.107894958238838e-08	2.985048006692776e-07	-6.895354728789609e-07
1.54	-0.2007570757108735	0.01768612108715372	0.8651349041503711	0.7862197640746366	-0.2259421703738805	-0.1530868325347777	-0.2748416307176909	0.5832540881988689	0.5832540881988899	0.05065526430658984	0.1745327456182123	0.161646195994302	0.03396815113849608	0.5481917358331265	0.2533017537079342	0.3778751140770135	-1.999531024376203	0.01126135744733529	-0.313321430072185	0.7580479345416227	-1.783076827170468	-1.783076827170475	0.2948465084182487	-1.066182377173476e-05	-0.418281609187116	-0.09206878430438023	-0.109146318045721	-0.0311337019892105	0.005433140088949612	-0.2853946646757719	0.1135248769886004	-0.01007089886363403	0.1465147984549259	-37.33639276634914	-4.35521466092803	-0.284365007925464	-5.036839130423613	-3.090805818632312	-642.8355632050044	61.31763174838905	0.08017177252061529	0.4370704119581975	-0.65193474332826	-0.4793216043448685	0.02033614925277589	-0.4711338492663476	1.373424073082481	-0.4798957390370207	-0.4798957390370251	0.3755627664204766	-0.0120747262080119	-0.1796972339042177	0.01697783815915513	1.699511590384031e-07	1.950478923332572e-07	-8.930633474829962e-07	1.317932727054919e-06	-1.711182897744862e-08	3.09694207845359e-07	-7.567843075651023e-07
